<?xml version="1.0" standalone="no"?>
<!DOCTYPE svg PUBLIC "-//W3C//DTD SVG 20010904//EN"
 "http://www.w3.org/TR/2001/REC-SVG-20010904/DTD/svg10.dtd">
<svg version="1.0" xmlns="http://www.w3.org/2000/svg"
 width="533.000000pt" height="207.000000pt" viewBox="0 0 533.000000 207.000000"
 preserveAspectRatio="xMidYMid meet">

<g transform="translate(0.000000,207.000000) scale(0.100000,-0.100000)"
fill="#000000" stroke="none">
<path d="M30 1030 l0 -1020 1015 0 1015 0 0 1020 0 1020 -1015 0 -1015 0 0
-1020z m415 868 c14 -6 25 -15 25 -20 0 -8 -17 -47 -25 -56 -5 -5 -55 21 -55
29 0 13 19 59 24 59 3 0 17 -5 31 -12z m126 -76 c22 -19 22 -19 3 -45 -23 -31
-23 -31 -53 -8 -23 17 -23 19 -6 44 21 32 26 33 56 9z m100 -94 c24 -30 24
-33 -8 -53 -25 -17 -27 -17 -44 6 -17 23 -17 25 3 46 26 28 26 28 49 1z m84
-115 c17 -26 17 -27 -5 -45 -30 -24 -37 -23 -54 11 -15 27 -14 30 7 44 30 21
32 21 52 -10z m64 -124 c6 -18 11 -33 11 -35 0 -1 -13 -7 -30 -12 -25 -9 -31
-8 -40 8 -16 29 -12 46 13 58 32 16 34 15 46 -19z m43 -144 c3 -26 -1 -30 -29
-36 -26 -5 -32 -3 -37 15 -10 36 -7 44 22 54 32 11 39 6 44 -33z m123 -85
c141 -21 260 -96 417 -263 167 -178 218 -202 343 -159 47 16 49 19 51 54 1 49
26 84 68 98 77 25 147 -44 125 -124 -13 -47 -48 -69 -112 -71 -29 -2 -72 -11
-97 -21 -62 -25 -192 -25 -240 0 -19 10 -93 77 -165 150 -170 173 -226 215
-336 251 -145 49 -386 -9 -559 -134 -61 -44 -147 -128 -180 -176 -24 -36 -26
-43 -14 -70 16 -38 8 -73 -24 -107 -64 -69 -184 -3 -166 91 8 39 56 81 93 81
19 0 32 8 45 31 29 50 136 158 201 204 117 83 267 146 390 164 83 12 81 12
160 1z m-83 -181 c5 -34 -6 -43 -44 -37 -18 2 -24 10 -26 36 -3 30 -2 32 31
32 31 0 35 -3 39 -31z m22 -115 c13 -34 6 -52 -21 -57 -32 -6 -38 -2 -47 35
-5 20 -2 28 11 31 35 9 51 7 57 -9z m30 -136 c10 -39 7 -46 -25 -53 -36 -8
-35 -9 -43 32 -6 27 -4 32 16 36 43 8 46 7 52 -15z m41 -135 c5 -20 2 -31 -11
-40 -27 -20 -43 -16 -54 13 -13 34 -13 33 13 44 36 14 44 12 52 -17z m56 -119
c12 -24 12 -28 -11 -46 l-24 -20 -18 22 c-24 29 -23 45 5 58 31 15 32 15 48
-14z m94 -104 c7 -11 -20 -60 -33 -60 -4 1 -18 10 -31 21 l-24 20 23 24 c23
24 48 22 65 -5z m94 -69 c24 -18 24 -20 8 -45 -20 -31 -21 -31 -52 -10 -24 16
-24 17 -8 45 20 34 21 34 52 10z m141 -65 c0 -2 -5 -17 -11 -34 -10 -28 -12
-30 -40 -20 -32 11 -33 15 -19 52 8 23 12 24 40 15 16 -6 30 -12 30 -13z m128
-31 c1 -1 -1 -16 -4 -34 -6 -30 -9 -32 -37 -27 -39 8 -38 7 -31 44 6 29 9 31
38 25 17 -3 32 -7 34 -8z m132 -51 c0 -34 -1 -35 -32 -32 -29 3 -33 7 -36 36
-3 31 -2 32 32 32 35 0 36 -1 36 -36z"/>
<path d="M1867 924 c-13 -13 -7 -52 8 -58 27 -10 46 5 43 33 -3 26 -35 41 -51
25z"/>
<path d="M175 786 c-27 -20 -15 -51 20 -51 23 0 31 5 33 22 4 29 -28 47 -53
29z"/>
<path d="M2207 1734 c-4 -4 -7 -295 -7 -646 l0 -638 135 0 135 0 0 408 c-1
224 3 407 7 408 4 0 28 -33 53 -75 25 -42 137 -226 249 -408 l203 -333 134 0
134 0 -2 643 -3 642 -130 0 -130 0 -5 -417 -5 -417 -148 242 c-81 133 -195
321 -255 417 l-107 175 -126 3 c-69 1 -128 -1 -132 -4z"/>
<path d="M3487 1733 c-4 -3 -7 -294 -7 -645 l0 -638 130 0 130 0 2 257 3 258
253 3 252 2 0 110 0 110 -255 0 -255 0 2 163 3 162 288 3 288 2 -3 108 -3 107
-411 3 c-226 1 -413 -1 -417 -5z"/>
<path d="M4477 1733 c-4 -3 -7 -294 -7 -645 l0 -638 135 0 135 0 0 260 0 260
253 2 252 3 0 105 0 105 -252 3 -253 2 0 165 0 165 285 0 286 0 -3 108 -3 107
-411 3 c-226 1 -413 -1 -417 -5z"/>
</g>
</svg>
